<svg xmlns="http://www.w3.org/2000/svg" width="300" height="420" viewBox="0 0 300 420"><g id="body" fill="#eef0f5" stroke="#c9cbd4" stroke-width="2"><circle cx="150" cy="42" r="25"/><path d="M112 72 H188 L202 190 H98Z"/><path d="M100 90 L58 195 L72 215 L118 118Z"/><path d="M200 90 L242 195 L228 215 L182 118Z"/><path d="M116 190 L96 365 H132 L150 212Z"/><path d="M184 190 L204 365 H168 L150 212Z"/></g><g id="muscles" fill="#7c3aed"><path id="Chest" d="M118 88 H150 V130 H110Z"/><path id="Chest2" d="M150 88 H182 L190 130 H150Z"/><path id="Shoulders" d="M96 83 L118 89 L109 121 L87 111Z"/><path id="Shoulders2" d="M204 83 L182 89 L191 121 L213 111Z"/><path id="Quads" d="M113 206 L145 211 L128 315 H104Z"/><path id="Quads2" d="M187 206 L155 211 L172 315 H196Z"/><path id="Glutes" d="M108 177 H148 V215 L113 207Z"/><path id="Glutes2" d="M152 177 H192 L187 207 L152 215Z"/><path id="Core" d="M132 132 H168 V181 H132Z"/></g></svg>