<svg xmlns="http://www.w3.org/2000/svg" width="240" height="240" viewBox="0 0 240 240"><rect width="240" height="240" fill="none"/><ellipse cx="120" cy="225" rx="72" ry="18" fill="#d9d2e8" opacity=".35"/><path d="M86 77 C88 45 119 35 145 51 C156 62 157 76 151 94 C130 83 105 82 86 98Z" fill="#0f0f10"/><path d="M88 91 C104 80 132 80 151 94 L151 109 C133 100 105 99 88 112Z" fill="#222"/><ellipse cx="116" cy="88" rx="31" ry="39" fill="rgb(158,111,92)"/><path d="M88 92 C92 122 101 145 119 148 C138 145 148 122 151 92 C137 107 104 106 88 92Z" fill="rgb(158,111,92)"/><circle cx="103" cy="91" r="4" fill="#111827"/><circle cx="133" cy="91" r="4" fill="#111827"/><path d="M114 101 C112 107 111 111 116 113" stroke="#654236" stroke-width="2" fill="none" stroke-linecap="round"/><path d="M104 119 C115 129 132 128 143 119" stroke="#fff" stroke-width="2.5" fill="none" stroke-linecap="round"/><path d="M101 112 C112 127 135 127 146 112 C142 145 105 145 101 112Z" fill="#211513" opacity=".72"/><path d="M108 132 C119 139 132 139 142 132" stroke="#111" stroke-width="2" fill="none"/><path d="M78 219 C81 168 96 142 119 142 C144 142 161 168 164 219Z" fill="#6f6f76"/><path d="M95 151 C105 166 136 166 147 151" stroke="#fff" opacity=".35" stroke-width="3" fill="none"/></svg>