<svg xmlns="http://www.w3.org/2000/svg" width="240" height="240" viewBox="0 0 240 240"><rect width="240" height="240" fill="none"/><ellipse cx="120" cy="225" rx="72" ry="18" fill="#d9d2e8" opacity=".35"/><path d="M82 82 C82 43 116 34 143 51 C158 68 154 98 149 118 C128 105 101 104 84 120 C80 103 80 93 82 82Z" fill="#120d0e"/><g stroke="#100b0c" stroke-width="5" stroke-linecap="round"><path d="M92 54 C82 91 91 122 79 162"/><path d="M107 46 C101 90 106 126 99 172"/><path d="M124 45 C124 88 125 127 121 170"/><path d="M141 56 C150 94 142 129 155 162"/></g><g fill="#c08a45"><circle cx="79" cy="162" r="3"/><circle cx="99" cy="172" r="3"/><circle cx="121" cy="170" r="3"/><circle cx="155" cy="162" r="3"/></g><ellipse cx="116" cy="88" rx="31" ry="39" fill="rgb(85,55,42)"/><path d="M88 92 C92 122 101 145 119 148 C138 145 148 122 151 92 C137 107 104 106 88 92Z" fill="rgb(85,55,42)"/><circle cx="103" cy="91" r="4" fill="#111827"/><circle cx="133" cy="91" r="4" fill="#111827"/><path d="M114 101 C112 107 111 111 116 113" stroke="#654236" stroke-width="2" fill="none" stroke-linecap="round"/><path d="M104 119 C115 129 132 128 143 119" stroke="#fff" stroke-width="2.5" fill="none" stroke-linecap="round"/><path d="M101 112 C112 127 135 127 146 112 C142 145 105 145 101 112Z" fill="#211513" opacity=".72"/><path d="M108 132 C119 139 132 139 142 132" stroke="#111" stroke-width="2" fill="none"/><path d="M78 219 C81 168 96 142 119 142 C144 142 161 168 164 219Z" fill="#6f6f76"/><path d="M95 151 C105 166 136 166 147 151" stroke="#fff" opacity=".35" stroke-width="3" fill="none"/></svg>