<svg xmlns="http://www.w3.org/2000/svg" width="240" height="240" viewBox="0 0 240 240"><rect width="240" height="240" fill="none"/><ellipse cx="120" cy="225" rx="72" ry="18" fill="#d9d2e8" opacity=".35"/><path d="M77 91 C77 47 111 31 139 45 C158 55 162 77 153 115 C136 108 102 108 83 119 C78 110 77 100 77 91Z" fill="#171014"/><ellipse cx="116" cy="88" rx="29" ry="39" fill="rgb(128,87,64)"/><path d="M88 92 C92 122 101 145 119 148 C138 145 148 122 151 92 C137 107 104 106 88 92Z" fill="rgb(128,87,64)"/><circle cx="103" cy="91" r="4" fill="#111827"/><circle cx="133" cy="91" r="4" fill="#111827"/><path d="M114 101 C112 107 111 111 116 113" stroke="#654236" stroke-width="2" fill="none" stroke-linecap="round"/><path d="M104 119 C115 129 132 128 143 119" stroke="#fff" stroke-width="2.5" fill="none" stroke-linecap="round"/><path d="M78 219 C81 168 96 142 119 142 C144 142 161 168 164 219Z" fill="#6f6f76"/><path d="M95 151 C105 166 136 166 147 151" stroke="#fff" opacity=".35" stroke-width="3" fill="none"/></svg>