<svg xmlns="http://www.w3.org/2000/svg" width="240" height="240" viewBox="0 0 240 240"><rect width="240" height="240" fill="none"/><ellipse cx="120" cy="225" rx="72" ry="18" fill="#d9d2e8" opacity=".35"/><path d="M80 85 C81 44 115 32 145 49 C160 65 158 104 150 130 C132 117 105 116 84 130 C78 108 78 96 80 85Z" fill="#151012"/><g stroke="#100b0c" stroke-width="3" stroke-linecap="round"><path d="M84 62 C65 98 72 142 58 176"/><path d="M95 49 C84 100 91 145 76 188"/><path d="M108 43 C102 98 105 155 94 196"/><path d="M126 43 C127 101 126 160 119 196"/><path d="M144 55 C158 103 151 149 166 186"/></g><g stroke="#5c463d" stroke-width="2"><path d="M70 116 C76 125 81 130 88 139"/><path d="M155 115 C148 123 145 134 142 146"/></g><ellipse cx="116" cy="88" rx="29" ry="39" fill="rgb(158,111,92)"/><path d="M88 92 C92 122 101 145 119 148 C138 145 148 122 151 92 C137 107 104 106 88 92Z" fill="rgb(158,111,92)"/><circle cx="103" cy="91" r="4" fill="#111827"/><circle cx="133" cy="91" r="4" fill="#111827"/><path d="M114 101 C112 107 111 111 116 113" stroke="#654236" stroke-width="2" fill="none" stroke-linecap="round"/><path d="M104 119 C115 129 132 128 143 119" stroke="#fff" stroke-width="2.5" fill="none" stroke-linecap="round"/><path d="M78 219 C81 168 96 142 119 142 C144 142 161 168 164 219Z" fill="#6f6f76"/><path d="M95 151 C105 166 136 166 147 151" stroke="#fff" opacity=".35" stroke-width="3" fill="none"/></svg>